<?xml version="1.0" encoding="UTF-8"?>
<!-- Created with Inkscape (http://www.inkscape.org/) -->
<svg width="1e3" height="200" version="1.1" viewBox="0 0 264.58 52.917" xmlns="http://www.w3.org/2000/svg">
 <g>
  <g stroke-width=".28366" aria-label="Meet Rex">
   <path d="m22.528 26.84-0.10893-0.16339q0-0.65356-0.27232-1.416-0.21785-0.76248-0.54463-1.525t-0.76248-1.4705q-0.38124-0.76248-0.70802-1.416l-0.38124-0.21785q0.70802 1.6884 1.4705 3.0499 0.76248 1.3616 0.76248 2.8866l0.27232 0.32678-0.49017-0.21785v-0.32678q-0.98034-1.9062-1.9062-4.1392-0.87141-2.2875-1.7973-4.1937-0.54463 3.649-1.3616 7.2981t-2.0696 7.0802q-1.0893 2.941-2.6142 5.6642-1.525 2.6687-2.5598 5.6642l-0.43571-0.32678-0.5991 0.10893q-0.49017-0.10893-0.49017-0.65356 0-0.4357 0.16339-1.0348 0.16339-0.65356 0.38124-1.3071 0.27232-0.65356 0.54463-1.2527 0.27232-0.65356 0.43571-1.0348l-0.49017-0.16339q-0.16339 0.32678-0.81695 1.4705-0.5991 1.1437-1.3616 2.3419-0.70802 1.1982-1.416 2.1785-0.70802 0.98034-1.0893 0.98034-0.27232-0.16339-0.38124-0.49017-0.10893-0.38124-0.10893-0.65356 0-1.5794 0.70802-4.0847 0.76248-2.5053 1.7428-5.174 0.98034-2.7232 1.9607-5.2829 1.0348-2.5598 1.5794-4.3026 0.49017-1.525 0.87141-3.2678 0.43571-1.7973 0.70802-3.5946 0.32678-1.8517 0.54463-3.649 0.21785-1.7973 0.38124-3.4312 0.92587-0.70802 2.5053-1.1982 1.6339-0.49017 2.9955-1.0348 2.941 2.3964 5.0651 5.5008 2.1241 3.1044 3.7035 7.0258 0.98034-1.4705 1.7973-3.2678 0.87141-1.7973 1.5794-3.7035 0.70802-1.9607 1.3616-3.8669 0.65356-1.9062 1.3071-3.5401 1.3616-0.43571 2.8321-0.65356 1.525-0.21785 2.9955-0.49017 1.4705 3.0499 2.7776 5.8276 1.3071 2.7776 2.3964 5.6097 1.1437 2.7776 2.0151 5.7186 0.92587 2.941 1.6339 6.3177 0.32678 1.7428 0.81695 3.5401 0.49017 1.7428 0.87141 3.5401 0.43571 1.7973 0.70802 3.5946 0.32678 1.7973 0.32678 3.5946 0 0.16339-0.16339 0.43571-0.10893 0.27232-0.54463 0.32678-0.87141-5.1195-1.9062-10.13-1.0348-4.9017-2.5598-9.7489 1.3616 4.8472 2.3419 9.64 1.0348 4.9562 1.7973 10.076l-0.76248 0.43571q0.10893 0.65356 0.27232 1.3616 0.16339 0.70802 0.16339 1.3616 0 0.16339-0.05446 0.65356 0 0.54463-0.10893 1.0893-0.05446 0.54463-0.27232 0.92588-0.16339 0.4357-0.49017 0.4357-0.32678 0-0.70802-0.4357-0.32678-0.38124-0.65356-0.98034-0.27232-0.54463-0.54463-1.0893-0.21785-0.49017-0.32678-0.76248-0.32678-3.5946-1.1437-8.0061-0.76248-4.466-1.8517-8.9864-1.0893-4.5749-2.5053-8.823-1.3616-4.3026-2.8865-7.5704l-0.05446 0.27232q1.7428 3.7035 2.9955 7.6248 1.2527 3.8669 2.1785 7.8972 0.92587 3.9758 1.5794 8.0606 0.65356 4.0303 1.1437 8.0061-1.1437-2.5053-1.8517-5.0651-0.65356-2.6142-1.1982-5.174-0.49017-2.6142-1.0348-5.2285-0.49017-2.6142-1.2527-5.2829l0.38124-1.0893q-0.76249-2.233-1.5794-4.4115-0.76248-2.1785-1.7973-4.2481l-0.21785 0.54463q-0.5991 1.6339-1.525 3.8124-0.92588 2.1785-2.1785 4.2481-1.2527 2.0696-2.8321 3.7035-1.525 1.6339-3.3767 2.1785-1.1437-0.70802-2.3419-1.3071-1.1437-0.65356-2.3419-1.3071v-0.32678l2.1785 1.1982q1.0893 0.5991 2.1785 1.2527l0.4357-0.10893q2.3419-1.3616 3.758-2.7232 1.4705-1.3616 2.5053-2.9955t1.7973-3.649q0.81695-2.0696 1.8517-4.6838l-0.21785-0.49017-0.21785 0.49017-0.92587 2.1241q-0.54463 1.3071-1.3616 2.8321-0.76248 1.4705-1.7428 3.0499-0.92587 1.525-1.9062 2.8321-0.98034 1.2527-2.0151 2.0696-1.0348 0.76248-1.9607 0.76248zm18.735-13.18q-0.10893-0.32678-0.38124-0.87141-0.27232-0.5991-0.5991-1.1982-0.27232-0.5991-0.54463-1.1437-0.27232-0.5991-0.43571-0.87141l0.5991 1.6884 1.1982 2.5053zm-5.7186 0.21785-1.8517 4.9017q0.54463-1.1437 0.98034-2.2875 0.49017-1.1437 0.92587-2.2875zm-1.416-5.0106 0.70802 1.7973 0.27232-0.05446-0.65356-1.7428zm-21.295 2.941-0.10893 1.6339q0 0.54463-0.10893 1.4705l0.5991-3.2133zm18.626 1.1437 1.416-3.3767h-0.21785zm7.6793-3.7035-1.2527-2.0696 0.10893 0.5991zm-2.3419 3.9758-0.10893 0.21785 0.21785 0.43571 0.05446-0.27232z"/>
   <path d="m73.887 48.08q-2.0696 0.70802-3.1589 0.76248-1.0893 0.10893-1.9062 0.16339-3.0499 0-5.5008-1.1437-2.4508-1.1437-4.1937-3.1044-1.7428-1.9607-2.7232-4.5749-0.92588-2.6687-0.92588-5.6642 0-1.7428 0.32678-3.5946 0.32678-1.9062 0.98034-3.7035 0.65356-1.8517 1.6884-3.4312 0.98034-1.5794 2.3419-2.8321-1.416 1.1437-2.3964 2.7232-1.0348 1.5794-1.7428 3.4312-0.70802 1.7973-1.0348 3.758-0.32678 1.9062-0.32678 3.7035 0 2.2875 0.70802 4.9017 0.76248 2.5598 2.3964 4.7928 1.6339 2.1785 4.1937 3.649 2.6142 1.4705 6.3177 1.4705 1.7428 0 3.649-0.49017-2.0696 1.3616-4.6294 1.3616-2.0696 0-3.9214-0.65356-1.7973-0.5991-3.3767-1.7428-1.525-1.0893-2.7776-2.6142t-2.1241-3.2678l0.49017-0.43571q-0.92587-1.8517-1.3616-3.7035-0.38124-1.8517-0.38124-3.758 0-2.7776 0.76248-5.3374 0.81695-2.5598 2.1241-4.8472l1.3071-1.7973q0.32678-0.5991 0.92587-1.1982 0.65356-0.5991 1.416-1.1437 0.76248-0.5991 1.5794-1.0348 0.87141-0.49017 1.6339-0.87141 1.9607-0.98034 3.9214-1.7428 1.9607-0.81695 4.5749-1.1982l-0.21785-0.16339q-5.0106 0.49017-8.4963 2.4508-3.4856 1.9062-5.6642 4.6838-2.1785 2.7776-3.1589 6.0999-0.98034 3.2678-0.98034 6.4267 0 1.6884 0.27232 3.4312 0.32678 1.6884 0.92587 3.3767-1.3616-3.2678-1.3616-6.9168 0-3.5946 1.1982-7.1347 1.1982-3.5401 3.758-6.5356 3.2678-2.9955 7.1347-4.5749 3.8669-1.6339 7.4615-1.6339 1.1437 0 2.3419 0.38124 1.1982 0.38124 2.1785 1.1982 0.98034 0.76248 1.5794 2.0151 0.65356 1.2527 0.65356 3.0499 0 1.4705-0.70802 3.5946-0.70802 2.1241-2.1241 4.1392-1.3616 1.9607-3.4312 3.3767-2.0696 1.3616-4.7928 1.3616h-1.7973q-2.0151-0.4357-3.7035-0.98034-1.6339-0.5991-3.1044-0.92588-0.21785 0.87141-0.27232 1.6884 0 0.76248 0 1.525 0 1.5794 0.32678 3.1044 0.38124 1.4705 1.1437 2.7232 0.76248 1.2527 1.9062 2.1241 1.1982 0.81695 2.8865 1.0348 1.0348 0.21785 1.7973 0.27232 0.76248 0 1.2527 0.05446 0.54463 0 0.76248 0.16339 0.27232 0.10893 0.27232 0.49017-0.54463 0.16339-1.1437 0.21785-0.54463 0.05446-1.1437 0.05446-1.9062 0-3.4312-0.5991-1.525-0.65356-2.6142-1.4705 1.2527 1.2527 2.9955 1.7973 1.7428 0.49017 3.4312 0.49017 0.92588 0 1.9062-0.16339-0.10893 0.32678-0.10893 0.38124 0 0.32678 0.27232 0.43571 0.21785-0.05446 0.76248-0.27232 0.54463-0.27232 1.0893-0.49017 0.5991-0.27232 1.1437-0.43571 0.54463-0.21785 0.76248-0.21785 0.27232 0 0.49017 0.10893 0.21785 0.05446 0.21785 0.5991 0 0.54463-0.38124 1.3071t-1.1437 1.525zm-7.5159-21.567 1.1982 0.21785q0.5991 0.10893 1.0893 0.10893 0.54463 0 1.2527-0.32678 0.76248-0.38124 1.4705-1.0348 0.76248-0.65356 1.3071-1.6339 0.5991-0.98034 0.87141-2.233l0.10893-0.32678q-0.76248 0-2.2875 0.38124-1.525 0.38124-3.1589 1.0348-1.6339 0.5991-3.0499 1.4705-1.416 0.81695-1.9607 1.7973 0.81695 0.16339 1.5794 0.32678 0.81695 0.10893 1.5794 0.21785zm-2.5053 4.0303q0.10893-0.10893 0.10893-0.32678 0.05446-0.21785 0.05446-0.32678l-2.5598-0.92588-0.27232 0.76248zm-1.525 12.363q-0.38124-0.4357-0.76248-0.87141-0.32678-0.38124-0.54463-0.76248 0.49017 0.92588 1.3071 1.6339z"/>
   <path d="m105.09 48.08q-2.0696 0.70802-3.1589 0.76248-1.0893 0.10893-1.9062 0.16339-3.0499 0-5.5008-1.1437-2.4508-1.1437-4.1937-3.1044-1.7428-1.9607-2.7232-4.5749-0.92587-2.6687-0.92587-5.6642 0-1.7428 0.32678-3.5946 0.32678-1.9062 0.98034-3.7035 0.65356-1.8517 1.6884-3.4312 0.98034-1.5794 2.3419-2.8321-1.416 1.1437-2.3964 2.7232-1.0348 1.5794-1.7428 3.4312-0.70802 1.7973-1.0348 3.758-0.32678 1.9062-0.32678 3.7035 0 2.2875 0.70802 4.9017 0.76248 2.5598 2.3964 4.7928 1.6339 2.1785 4.1937 3.649 2.6142 1.4705 6.3177 1.4705 1.7428 0 3.649-0.49017-2.0696 1.3616-4.6294 1.3616-2.0696 0-3.9214-0.65356-1.7973-0.5991-3.3767-1.7428-1.525-1.0893-2.7776-2.6142-1.2527-1.525-2.1241-3.2678l0.49017-0.43571q-0.92588-1.8517-1.3616-3.7035-0.38124-1.8517-0.38124-3.758 0-2.7776 0.76248-5.3374 0.81695-2.5598 2.1241-4.8472l1.3071-1.7973q0.32678-0.5991 0.92587-1.1982 0.65356-0.5991 1.416-1.1437 0.76248-0.5991 1.5794-1.0348 0.87141-0.49017 1.6339-0.87141 1.9607-0.98034 3.9214-1.7428 1.9607-0.81695 4.5749-1.1982l-0.21785-0.16339q-5.0106 0.49017-8.4963 2.4508-3.4856 1.9062-5.6642 4.6838-2.1785 2.7776-3.1589 6.0999-0.98034 3.2678-0.98034 6.4267 0 1.6884 0.27232 3.4312 0.32678 1.6884 0.92588 3.3767-1.3616-3.2678-1.3616-6.9168 0-3.5946 1.1982-7.1347 1.1982-3.5401 3.758-6.5356 3.2678-2.9955 7.1347-4.5749 3.8669-1.6339 7.4615-1.6339 1.1437 0 2.3419 0.38124 1.1982 0.38124 2.1785 1.1982 0.98034 0.76248 1.5794 2.0151 0.65356 1.2527 0.65356 3.0499 0 1.4705-0.70802 3.5946-0.70802 2.1241-2.1241 4.1392-1.3616 1.9607-3.4312 3.3767-2.0696 1.3616-4.7928 1.3616h-1.7973q-2.0151-0.4357-3.7035-0.98034-1.6339-0.5991-3.1044-0.92588-0.21785 0.87141-0.27232 1.6884 0 0.76248 0 1.525 0 1.5794 0.32678 3.1044 0.38124 1.4705 1.1437 2.7232 0.76248 1.2527 1.9062 2.1241 1.1982 0.81695 2.8865 1.0348 1.0348 0.21785 1.7973 0.27232 0.76249 0 1.2527 0.05446 0.54463 0 0.76248 0.16339 0.27232 0.10893 0.27232 0.49017-0.54463 0.16339-1.1437 0.21785-0.54463 0.05446-1.1437 0.05446-1.9062 0-3.4312-0.5991-1.525-0.65356-2.6142-1.4705 1.2527 1.2527 2.9955 1.7973 1.7428 0.49017 3.4312 0.49017 0.92587 0 1.9062-0.16339-0.10893 0.32678-0.10893 0.38124 0 0.32678 0.27232 0.43571 0.21785-0.05446 0.76248-0.27232 0.54463-0.27232 1.0893-0.49017 0.59909-0.27232 1.1437-0.43571 0.54464-0.21785 0.76249-0.21785 0.27231 0 0.49017 0.10893 0.21785 0.05446 0.21785 0.5991 0 0.54463-0.38124 1.3071t-1.1437 1.525zm-7.5159-21.567 1.1982 0.21785q0.5991 0.10893 1.0893 0.10893 0.54464 0 1.2527-0.32678 0.76248-0.38124 1.4705-1.0348 0.76249-0.65356 1.3071-1.6339 0.5991-0.98034 0.87141-2.233l0.10893-0.32678q-0.76249 0-2.2875 0.38124-1.525 0.38124-3.1589 1.0348-1.6339 0.5991-3.0499 1.4705-1.416 0.81695-1.9607 1.7973 0.81695 0.16339 1.5794 0.32678 0.81695 0.10893 1.5794 0.21785zm-2.5053 4.0303q0.10893-0.10893 0.10893-0.32678 0.05446-0.21785 0.05446-0.32678l-2.5598-0.92588-0.27232 0.76248zm-1.525 12.363q-0.38124-0.4357-0.76248-0.87141-0.32678-0.38124-0.54463-0.76248 0.49017 0.92588 1.3071 1.6339z"/>
   <path d="m136.74 19.868q-0.49017 0-1.3616 0.16339-0.81695 0.16339-1.6884 0.38124-0.81695 0.21785-1.525 0.43571-0.65356 0.21785-0.81695 0.32678 1.416-0.21785 2.6142-0.49017 1.1982-0.32678 2.6142-0.32678-0.27231 0.49017-0.70802 0.76248t-0.98034 0.4357q-0.49017 0.10893-1.0893 0.21785-0.5991 0.05446-1.2527 0.21785l-0.38124-0.49017q-1.0348 0.38124-1.5794 0.49017-0.54463 0.05446-1.1437 0.05446-0.65356 0-1.3616 0-0.65356-0.05446-1.4705-0.05446 0 0.27232-0.0545 0.4357 1.2527 0 2.1241 0 0.87141-0.05446 2.1241-0.21785-1.1982 0.21785-2.1241 0.32678-0.87141 0.10893-2.1241 0.10893-0.21785 1.2527-0.38124 2.4508-0.16339 1.1982-0.16339 2.3419 0 0.65356 0.0545 1.525 0.0545 0.87141 0.10893 1.7973 0.10893 0.87141 0.16339 1.6884 0.0545 0.76248 0.0545 1.1437v3.2678q0.27232 1.0893 1.5794 1.6339 1.3071 0.54463 3.758 0.54463h1.7428q0.92587 0 1.2526 0.21785 0.38125 0.16339 0.38125 0.49017 0 0.27232-0.43571 0.32678-0.43571 0-0.87141 0-1.5794 0-3.3223-0.21785-1.6339-0.21785-3.2133-0.49017 1.5794 0.38124 3.3223 0.70802 1.7973 0.27232 3.4856 0.27232h0.49017q0.21786 0 0.49017-0.05446 0 0.27232 0 0.49017 0.0545 0.21785 0.16339 0.49017l0.43571-0.10893q0.16339-0.05446 0.38124-0.05446 0.21785-0.05446 0.32678-0.16339 1.7428 0.16339 1.7428 1.1982 0 0.5991-0.32678 0.98034-0.32678 0.38124-0.81695 0.5991-0.49016 0.21785-1.0893 0.32678-0.5991 0.05446-1.1437 0.05446-1.9062 0-3.758-0.21785-1.7973-0.27232-3.5401-0.54463 1.525 0.54463 3.8669 0.87141t4.7383 0.32678q-0.5991 0.38124-1.416 0.5991-0.81695 0.21785-1.6884 0.21785l-3.9214-0.49017q-0.76249-0.10893-1.1982-0.21785-0.38125-0.10893-0.76249-0.21785-0.38124-0.16339-0.87141-0.32678-0.43571-0.16339-1.2526-0.38124v-0.5991q-1.416-0.38124-2.2875-1.3071-0.87141-0.92587-1.3616-2.0151t-0.65356-2.1785q-0.16339-1.1437-0.16339-2.0151 0-0.92588 0-1.6884 0.0545-0.81695 0.0545-1.6339 0-0.5991-0.0545-1.525 0-0.92587-0.0545-1.9607t-0.10893-2.1241q0-1.0893 0-2.0696 0-0.5991 0-1.1437 0.0545-0.54463 0.10893-0.98034h-0.54463q-0.0545 0.38124-0.0545 0.87141v0.98034q0 1.5794 0.0545 3.1589 0.0545 1.525 0.0545 2.8321 0.0545 1.3071 0.10893 2.2875 0.0545 0.92587 0.0545 1.3616v2.6142q-0.16339-1.4705-0.32678-4.1937-0.16339-3.1589-0.16339-6.9713v-0.98034q0-0.5991 0-1.1437 0.0545-0.54463 0.16339-0.81695l-1.8518-0.10893q-0.59909-0.38124-1.1982-0.5991-0.59909-0.21785-1.0893-0.21785v-1.0893q0-0.32678 0.0545-0.54463 0.10893-0.27232 0.54463-0.27232 0.10893 0 0.54464 0.10893v-0.65356q-0.5991-0.32678-0.98034-0.87141-0.38124-0.5991-0.38124-1.1982 0-1.416 2.0151-1.416 0.76248 0 1.5794 0.10893 0.81695 0.10893 1.6884 0.16339 0.21785-1.1982 0.38124-2.1241 0.16339-0.98034 0.32678-1.8517 0.16339-0.92587 0.38124-1.7973 0.21785-0.92587 0.54463-1.9062 0.49017-1.0893 0.76249-2.3419 0.27231-1.3071 0.38124-2.5598l1.1437 0.054463q0.27231 0 0.4357 0.16339 0.21786 0.16339 0.21786 0.76248 0 0.49017-0.16339 1.3071l0.65355 0.16339q0.43571-1.4705 1.0348-2.3964 0.65355-0.92587 1.2526-0.92587 0.92587 0 1.1437 2.3419v0.98034q0 1.416-0.21786 2.6687-0.16339 1.1982-0.4357 2.3964-0.27232 1.1982-0.54463 2.4508-0.27232 1.2527-0.49017 2.7232 1.1982 0.16339 2.3419 0.16339 0.54464 0 1.0893 0 0.54463-0.05446 1.0893-0.05446t1.1437-0.4357q0.5991-0.43571 1.0893-0.43571 0.43571 0 0.65356 0.27232 0.21786 0.27232 0.21786 0.5991-0.98034 0.27232-1.9607 0.5991-0.92587 0.27232-1.7973 0.54463 0.87142-0.10893 1.8518-0.38124 0.98034-0.32678 2.0696-0.5991 0 0.27232 0 0.49017 0.0545 0.21785 0.16339 0.49017 0.10893 0 0.27232-0.05446 0.32678-0.10893 0.38124-0.10893 0.54463 0.27232 0.70802 0.70802 0.16339 0.38124 0.16339 0.87141 0 0.38124-0.10892 0.70802-0.10893 0.27232-0.10893 0.49017zm-14.433 20.097q-0.76248-1.4705-0.81694-2.8866-0.0545-1.416-0.16339-2.6687l-0.49017-8.2784-0.16339 0.98034q0 3.649 0.21785 6.6445 0.27232 2.941 0.76248 4.5749 0 0.49017-0.0545 0.65356 0 0.16339 0 0.27232 0 0.10893 0.10893 0.27232 0.16339 0.16339 0.59909 0.43571zm3.1044-2.941q-0.10893-0.43571-0.10893-0.92587v-2.6687q-0.0545 0.54463-0.10893 1.0893-0.0545 0.49017-0.0545 1.0348 0 1.416 0.16339 2.1785 0.16339 0.65356 0.65356 1.0893-0.27232-0.32678-0.38124-0.70802-0.0545-0.43571-0.16339-1.0893zm-5.2829-0.05446-0.0545-0.38124zm5.9365 1.9062q-0.0545-0.05446-0.10892-0.05446 0.0545 0 0.10892 0.05446z"/>
   <path d="m194.03 45.412q-0.43571-0.81695-1.525-1.6339-1.0893-0.87141-2.6142-1.6884t-3.2678-1.5794q-1.7428-0.76248-3.4312-1.4705-1.6884-0.76248-3.1589-1.416-1.0348-0.4357-1.7973-0.87141 1.5794 0.92587 3.3223 1.6884 2.0151 0.92588 4.0303 1.9062 2.0696 0.98034 3.9758 2.0696t3.4856 2.5053q-1.5794-0.43571-3.9758-1.416-2.3964-1.0348-4.9017-2.233-2.4508-1.2527-4.7928-2.5053-2.2874-1.2527-3.7035-2.1785l0.38124-0.49017q-1.525-1.0348-3.1044-2.3964t-2.4508-2.9955q-0.5991 2.5598-0.70802 4.9017-0.10893 2.3419-0.10893 4.466 0 0.76248 0.38124 1.4705 0.38124 0.65356 0.38124 1.2527 0 0.81695-0.76248 0.98034-0.43571-1.0348-0.65356-2.0696t-0.32678-2.0696q0 1.0893 0.10893 2.1241 0.16339 1.0893 0.54463 2.1785l-0.81695 0.32678 0.49017 0.65356q-0.10892 0.5991-0.49017 1.1437-0.32678 0.49017-1.0348 0.49017-0.87141 0-1.416-0.92588-0.49017-0.98034-0.81695-2.2875-0.27231-1.3616-0.38124-2.7232-0.0545-1.416-0.0545-2.3419 0-1.8517 0-3.649 0.0545-1.7973 0.16339-3.649-0.27232 1.7428-0.32678 3.5401 0 1.7973 0 3.5946 0 1.9062 0.21785 3.9214 0.21785 2.0151 0.65356 3.8669-0.70802-0.65356-1.0893-1.4705-0.32678-0.81695-0.54463-1.6884-0.16339-0.92588-0.27231-1.8517-0.0545-0.92587-0.10893-1.7973l0.65356-0.16339q-0.21786-0.81695-0.27232-1.6339-0.0545-0.87141-0.0545-1.7428 0-1.9062 0.27231-3.7035 0.27232-1.8517 0.27232-3.758v-0.65356l-0.0545-1.3616h-0.32678q-0.10893 2.6142-0.32678 5.2285-0.16339 2.6142-0.21785 5.2829-0.0545-0.54463-0.0545-1.0348v-1.0348q0-3.9758 0.38124-7.7882 0.43571-3.8669 0.87142-7.7882 0.10892-1.2527 0.65355-2.2875 0.54464-1.0893 0.87142-2.233 0.21785 0.16339 0.54463 0.21785 0.32678 0 0.59909 0.05446 0.27232 0 0.49017 0.16339 0.21785 0.16339 0.21785 0.54463 0 0.21785-0.0545 0.4357l-0.10893 0.43571 0.49017 0.16339q0.38125-0.5991 0.98034-1.1437 0.5991-0.54463 1.3616-0.54463 0.5991 0 0.87141 0.49017 0.27232 0.49017 0.27232 1.0348 0 0.32678-0.10893 1.3616-0.0545 1.0348-0.21785 2.3964-0.10893 1.3616-0.27232 2.941-0.16339 1.525-0.32678 2.8866-0.10892 1.3616-0.21785 2.3419-0.10893 0.92587-0.10893 1.1437l1.3071-2.941q-0.16339 0.49017-0.32678 0.81695-0.10892 0.32678-0.21785 0.65356-0.10893 0.32678-0.32678 0.70802-0.16339 0.38124-0.49017 0.98034v0.76248l1.7973-4.0847q0.87141 0 1.6884 0 0.87141-0.05446 1.7428-0.21785l0.54463-0.10893q-1.1982 0-1.9062 0-0.65356-0.05446-1.2527-0.16339 2.1785 0 4.3026-0.05446 2.1785-0.10893 4.4115-0.10893 1.9607 0 3.8669-0.10893 1.9607-0.10893 3.4856-0.76248 1.5794-0.65356 2.5598-2.0151t0.98034-3.8669q0-2.5598-0.65356-4.1392t-1.9062-2.4508q-1.1982-0.92587-3.0499-1.1982-1.8518-0.32678-4.1937-0.32678-4.7928 0-9.64 0.4357-4.8472 0.43571-9.4766 1.6339-0.10893-0.43571-0.16339-0.76248-0.0545-0.38124-0.27232-0.65356 0-0.32678 0.5991-0.5991 0.59909-0.27232 1.3616-0.43571 0.76248-0.16339 1.416-0.27232 0.70802-0.10893 0.92587-0.16339v-0.65356q-0.38124 0.054463-1.3071 0.10893-0.92588 0.054463-2.0151 0.054463-1.4705 0-2.7232-0.16339-1.2526-0.21785-1.2526-0.81695 0-0.65356 1.416-1.2527 1.4705-0.5991 3.7035-1.0893 2.233-0.54463 4.9017-0.92587 2.6687-0.38124 5.1196-0.65356 2.5053-0.32678 4.4115-0.43571 1.9607-0.16339 2.7232-0.16339 3.9214 0 7.0802 0.81695 3.1589 0.76248 5.3374 2.5598 2.233 1.7973 3.3767 4.7383 1.1982 2.8866 1.1982 7.1347 0 3.5401-1.3616 6.0454-1.3071 2.4508-3.5401 4.0303-2.233 1.525-5.1196 2.2875-2.8866 0.70802-5.991 0.70802-0.87141 0-1.7428-0.05446-0.81695-0.05446-1.6884-0.10893 0.5991 0.38124 1.9607 1.0348 1.416 0.65356 3.1044 1.4705 1.7428 0.81695 3.5946 1.7428 1.9062 0.87141 3.4312 1.7428 1.525 0.81695 2.5053 1.5794 0.98034 0.70802 0.98034 1.1437l-0.27232 0.32678q-1.7973-1.3071-3.7035-2.2875-1.9062-0.98034-3.9214-1.8517-1.9607-0.87141-3.9758-1.6884-1.9062-0.81695-3.8124-1.9062 1.8518 1.0893 3.7035 1.9062l3.8669 1.7428q1.9607 0.87141 3.8124 1.8517 1.9062 0.92587 3.649 2.233l-0.70802 0.65356q0.38124 0.27232 0.87141 0.76248 0.54463 0.43571 0.98033 0.98034 0.49017 0.54463 0.81695 1.1437 0.32678 0.54463 0.32678 1.0348 0 0.70802-0.65356 0.70802-0.65355 0-1.416-0.38124-0.76248-0.38124-1.3616-0.5991zm-11.873-19.498q-1.0893 0-2.2874 0.05446-1.1437 0-2.3419 0 1.3616 0.05446 2.8321 0.16339 1.4705 0.05446 2.9955 0.05446 1.9062 0 3.7035-0.21785 1.8518-0.27232 3.2678-1.0348 1.416-0.81695 2.233-2.1785 0.87142-1.416 0.87142-3.7035 0-0.76248-0.10893-1.4705-0.10893-0.70802-0.27232-1.4705h-0.32678q0.32678 1.3071 0.32678 2.6687 0 2.4508-0.87141 3.8669t-2.3419 2.1785q-1.4705 0.70802-3.4856 0.92588-1.9607 0.16339-4.1937 0.16339zm-9.64 1.1982q2.1785 0.10893 4.4115 0.16339 2.2874 0 4.6838 0 1.416 0 2.8321-0.05446 1.416-0.10893 2.7232-0.38124-0.5991 0.10893-1.1982 0.10893h-1.1437q-0.65356 0-1.5794 0-0.92588-0.05446-2.0151-0.10893-1.0893-0.05446-2.2875-0.05446-1.1982-0.05446-2.3419-0.05446-1.2527 0-2.2875 0.05446t-1.7973 0.32678zm-2.0696 4.1937q1.0893 1.416 2.1785 2.6687 1.1437 1.1982 2.5598 2.2875-1.3071-0.92587-2.6687-2.233-1.3071-1.3071-2.0696-2.7232zm8.0606-0.43571q1.0893 0.10893 2.1785 0.16339 1.0348 0.05446 1.9607 0.10893-0.76248-0.05446-1.525-0.16339-0.87141-0.16339-1.7428-0.16339h-0.43571q-0.21785 0-0.4357 0.05446zm-6.1543-3.758q-0.0545 0.16339-0.32678 0.65356-0.21786 0.49017-0.49017 1.0893-0.21785 0.54463-0.43571 1.0348-0.21785 0.49017-0.21785 0.65356l0.10893-0.10893 1.3616-3.1589zm5.6642 4.7928h-0.16339q0.76248 0.5991 1.7428 1.1437zm-6.699-0.92587q0.10892 0.27232 0.32678 0.65356 0.27231 0.32678 0.65355 0.70802-0.32678-0.38124-0.54463-0.76248-0.21785-0.43571-0.32678-0.81695zm6.4266 5.5008q0.16339 0.10893 0.27232 0.16339z"/>
   <path d="m223.06 48.08q-2.0696 0.70802-3.1589 0.76248-1.0893 0.10893-1.9062 0.16339-3.0499 0-5.5008-1.1437-2.4508-1.1437-4.1937-3.1044-1.7428-1.9607-2.7232-4.5749-0.92588-2.6687-0.92588-5.6642 0-1.7428 0.32678-3.5946 0.32678-1.9062 0.98034-3.7035 0.65356-1.8517 1.6884-3.4312 0.98034-1.5794 2.3419-2.8321-1.416 1.1437-2.3964 2.7232-1.0348 1.5794-1.7428 3.4312-0.70802 1.7973-1.0348 3.758-0.32678 1.9062-0.32678 3.7035 0 2.2875 0.70802 4.9017 0.76249 2.5598 2.3964 4.7928 1.6339 2.1785 4.1937 3.649 2.6142 1.4705 6.3177 1.4705 1.7428 0 3.649-0.49017-2.0696 1.3616-4.6294 1.3616-2.0696 0-3.9214-0.65356-1.7973-0.5991-3.3767-1.7428-1.525-1.0893-2.7776-2.6142-1.2526-1.525-2.1241-3.2678l0.49017-0.43571q-0.92588-1.8517-1.3616-3.7035-0.38125-1.8517-0.38125-3.758 0-2.7776 0.76249-5.3374 0.81695-2.5598 2.1241-4.8472l1.3071-1.7973q0.32678-0.5991 0.92588-1.1982 0.65355-0.5991 1.416-1.1437 0.76248-0.5991 1.5794-1.0348 0.87141-0.49017 1.6339-0.87141 1.9607-0.98034 3.9214-1.7428 1.9607-0.81695 4.5749-1.1982l-0.21786-0.16339q-5.0106 0.49017-8.4963 2.4508-3.4856 1.9062-5.6642 4.6838-2.1785 2.7776-3.1589 6.0999-0.98034 3.2678-0.98034 6.4267 0 1.6884 0.27231 3.4312 0.32678 1.6884 0.92588 3.3767-1.3616-3.2678-1.3616-6.9168 0-3.5946 1.1982-7.1347t3.758-6.5356q3.2678-2.9955 7.1347-4.5749 3.8669-1.6339 7.4615-1.6339 1.1437 0 2.3419 0.38124 1.1982 0.38124 2.1785 1.1982 0.98034 0.76248 1.5794 2.0151 0.65355 1.2527 0.65355 3.0499 0 1.4705-0.70802 3.5946-0.70802 2.1241-2.1241 4.1392-1.3616 1.9607-3.4312 3.3767-2.0696 1.3616-4.7928 1.3616h-1.7973q-2.0151-0.4357-3.7035-0.98034-1.6339-0.5991-3.1044-0.92588-0.21785 0.87141-0.27232 1.6884 0 0.76248 0 1.525 0 1.5794 0.32678 3.1044 0.38124 1.4705 1.1437 2.7232 0.76248 1.2527 1.9062 2.1241 1.1982 0.81695 2.8866 1.0348 1.0348 0.21785 1.7973 0.27232 0.76248 0 1.2526 0.05446 0.54463 0 0.76248 0.16339 0.27232 0.10893 0.27232 0.49017-0.54463 0.16339-1.1437 0.21785-0.54463 0.05446-1.1437 0.05446-1.9062 0-3.4312-0.5991-1.525-0.65356-2.6142-1.4705 1.2527 1.2527 2.9955 1.7973 1.7428 0.49017 3.4312 0.49017 0.92587 0 1.9062-0.16339-0.10893 0.32678-0.10893 0.38124 0 0.32678 0.27232 0.43571 0.21785-0.05446 0.76249-0.27232 0.54463-0.27232 1.0893-0.49017 0.59909-0.27232 1.1437-0.43571 0.54463-0.21785 0.76248-0.21785 0.27232 0 0.49017 0.10893 0.21785 0.05446 0.21785 0.5991 0 0.54463-0.38124 1.3071t-1.1437 1.525zm-7.5159-21.567 1.1982 0.21785q0.5991 0.10893 1.0893 0.10893 0.54463 0 1.2526-0.32678 0.76248-0.38124 1.4705-1.0348 0.76248-0.65356 1.3071-1.6339 0.5991-0.98034 0.87141-2.233l0.10893-0.32678q-0.76248 0-2.2874 0.38124-1.525 0.38124-3.1589 1.0348-1.6339 0.5991-3.0499 1.4705-1.416 0.81695-1.9607 1.7973 0.81694 0.16339 1.5794 0.32678 0.81695 0.10893 1.5794 0.21785zm-2.5053 4.0303q0.10893-0.10893 0.10893-0.32678 0.0545-0.21785 0.0545-0.32678l-2.5598-0.92588-0.27231 0.76248zm-1.525 12.363q-0.38125-0.4357-0.76249-0.87141-0.32678-0.38124-0.54463-0.76248 0.49017 0.92588 1.3071 1.6339z"/>
   <path d="m256.07 44.486q0.0545-0.27232 0.0545-0.4357v-0.49017q0-1.1982-0.76249-2.8321-0.70802-1.6339-1.7973-3.2133t-2.2875-2.941q-1.1982-1.416-2.0696-2.233l-0.0545 0.10893q1.1437 1.3616 2.2874 2.7776 1.1982 1.3616 2.1241 2.7776 0.98034 1.3616 1.5794 2.7776 0.65356 1.416 0.65356 2.7776v0.49017q0 0.16339-0.0545 0.4357-0.49017-0.32678-0.70802-0.76248-0.16339-0.49017-0.27232-0.87141-0.0545-0.4357-0.10893-0.70802 0-0.27232-0.21785-0.27232-0.32678-0.76248-0.59909-1.1982-0.27232-0.49017-0.70803-1.2527l0.32678-0.65356q-1.3616-1.3071-2.5053-2.7232-1.0893-1.416-2.3419-2.9955l-0.21785 0.21785q1.2526 1.525 2.1241 2.6687 0.87141 1.0893 1.1437 1.525-0.16339-0.27232-0.92588-1.0348-0.81695-0.87141-2.5053-2.941-2.0696 2.2875-3.758 4.5749-1.6339 2.233-3.1044 4.466-0.38124 0.27232-0.59909 0.98034-0.21786 0.65356-0.43571 1.3616-0.21785 0.70802-0.54463 1.2527-0.27232 0.49017-0.81695 0.49017-0.21785 0-0.54463-0.32678 0.92587-1.416 1.3616-2.6687 0.49017-1.3071 0.59909-1.5794-0.76248 0.76248-1.0893 1.9062-0.32678 1.0893-1.0348 2.1785-0.10893-0.10893-0.32678-0.27232-0.21785-0.21785-0.49017-0.21785l-0.49017 0.98034q-0.21785 0.10893-0.54463 0.10893-0.38124 0-0.70802-0.27232-0.27232-0.32678-0.49017-0.70802-0.21785-0.38124-0.38124-0.70802-0.10893-0.32678-0.16339-0.38124l0.16339-0.16339q0.27231-0.27232 0.65356-1.0348 0.38124-0.76248 0.92587-1.8517 0.5991-1.0893 1.3616-2.3964 0.76249-1.3071 1.7973-2.7232 1.0893-1.4705 2.1785-3.0499 1.1437-1.6339 2.233-2.9955-2.1241 2.3964-4.0303 5.174-1.9062 2.7232-3.4856 5.4463-0.49016 1.0893-0.98033 1.9062t-0.98034 1.1982q-0.10893-0.16339-0.10893-0.65356 0-0.38124 0.21786-1.0893 0.27231-0.70802 0.65355-1.525 0.43571-0.81695 0.92588-1.6339 0.54463-0.87141 1.0893-1.6339l0.49017 0.16339q1.2526-2.5053 2.941-4.5204 1.6884-2.0151 3.2678-4.0847l-0.38125-0.27232q-1.2526 1.5794-2.5053 3.2133-1.1982 1.6339-2.3964 3.3767 1.1437-1.7428 2.2874-3.3767 1.1982-1.6884 2.4508-3.3223-1.4705-1.0893-2.8866-2.0151-1.3616-0.92587-2.7776-2.1241-1.416-1.1982-2.941-2.8866-1.4705-1.7428-3.1044-4.4115l1.3071-0.87141q0.27232 0 0.54463 0.32678 0.32678 0.27232 0.76249 1.0348l0.49017-0.49017q-0.43571-1.0348-0.43571-1.7973 0-1.6339 1.1982-1.6339 0.54464 0 1.416 0.81695 0.92587 0.81695 2.0696 2.0151 1.1437 1.1982 2.5053 2.5053 1.3616 1.2527 2.8865 2.1785l3.0499 2.6142 3.3223-5.5552q0.4357-0.21785 0.98034-0.65356 0.59909-0.49017 1.1437-0.98034 0.5991-0.54463 1.1982-1.0893 0.5991-0.5991 1.0893-1.0348 0.10892 0.43571 0.54463 0.65356 0.43571 0.21785 0.43571 0.65356 0 0.49017-0.98034 1.3071 0.32678 0.32678 0.49017 0.32678 1.0348-0.54463 1.9607-0.54463 0.70802 0 1.1437 0.32678 0.43571 0.27232 0.43571 0.87141 0 0.70802-0.81695 1.7973t-1.9607 2.3964-2.3419 2.7776q-1.1982 1.416-1.9062 2.8321 0.98034 1.416 2.4508 3.1044 1.525 1.6884 2.8866 3.5946 1.416 1.8517 2.3964 3.8669 1.0348 2.0151 1.0348 4.1392 0 0.87141-0.32678 1.0348-0.27232 0.10893-0.54463 0.10893-0.10893-0.98034-0.27232-1.9607-0.16339-0.98034-0.54463-1.9607l-0.49017-0.98034q-0.10893-0.05446-0.32678-0.27232l0.65356 1.2527q0.38124 0.98034 0.49017 1.9062 0.16339 0.87141 0.16339 1.8517-0.27232 0-0.49017 0.05446-0.21785 0-0.32678 0.10893v0.98034q-0.43571 1.0348-1.1437 1.0348-0.49017 0-1.0348-0.38124-0.49017-0.38124-0.76248-0.65356zm-14.542-4.2481q0.76249-0.76248 1.416-1.8517 0.59909-1.0348 1.3616-2.0151-0.76249 0.87141-1.525 1.7428-0.81695 0.87141-1.2527 2.1241zm10.784-10.62q0.98033 1.7428 2.3419 3.4856 1.3616 1.6884 2.7232 3.5401-1.2526-1.8517-2.6142-3.649-1.3616-1.7973-2.4508-3.3767zm-10.838-2.8321-0.16339 0.16339q0.0545 0.05446 0.38124 0.32678 0.32678 0.21785 0.70802 0.49017 0.43571 0.27232 0.76249 0.54463 0.32678 0.21785 0.4357 0.27232l0.16339-0.21785zm2.8866 1.9607-0.43571-0.27232-0.16339 0.21785 0.38125 0.27232zm7.3525 8.7686-0.0545-0.05446z"/>
  </g>
 </g>
</svg>
