<?xml version="1.0" encoding="UTF-8"?>
<!-- Uploaded to: SVG Find, www.svgrepo.com, Generator: SVG Find Mixer Tools -->
<svg width="1800" height="600" fill="#000000" version="1.1" viewBox="144 144 1152 384" xmlns="http://www.w3.org/2000/svg" xmlns:xlink="http://www.w3.org/1999/xlink">
 <defs>
  <linearGradient id="linearGradient48397" x1="406" x2="400" y1="148" y2="661" gradientTransform="scale(1.024)" gradientUnits="userSpaceOnUse">
   <stop stop-color="#ff0010" offset="0"/>
   <stop stop-color="#ffed00" offset="1"/>
  </linearGradient>
  <linearGradient id="linearGradient37295" x1="406" x2="400" y1="148" y2="661" gradientTransform="scale(1.024)" gradientUnits="userSpaceOnUse" xlink:href="#linearGradient48397"/>
 </defs>
 <g display="none">
  <rect x="146.33" y="146.33" width="1442.3" height="475.34" fill="#e3e2db" stroke-linecap="round" stroke-linejoin="round" stroke-width="1.5347"/>
  <text x="859.33978" y="384" font-family="'Finger Paint'" font-size="122.88px" stroke-width=".64" style="line-height:1.25" xml:space="preserve"><tspan x="859.33978" y="384" stroke-width=".64"/></text>
 </g>
 <g display="none" stroke-linecap="round" stroke-linejoin="round" stroke-width="1.9">
  <g fill="#ffffff">
   <path transform="matrix(.64 0 0 .64 144 144)" d="m282 611c1.6 48 41 87 90 87 49-3e-3 88-39 90-87z"/>
   <path transform="matrix(.64 0 0 .64 144 144)" d="m398 509c7.2 0 13 5.8 13 13s-5.8 13-13 13-13-5.8-13-13 5.8-13 13-13z"/>
   <path transform="matrix(.64 0 0 .64 144 144)" d="m346 509c7.2 0 13 5.8 13 13s-5.8 13-13 13-13-5.8-13-13 5.8-13 13-13z"/>
   <path transform="matrix(.64 0 0 .64 144 144)" d="m292 428c-13 0-23 11-23 23 0 13 11 23 23 23 13 0 23-11 23-23 0-13-11-23-23-23z"/>
   <path transform="matrix(.64 0 0 .64 144 144)" d="m451 425c-13 0-23 11-23 23 0 13 11 23 23 23 13 0 23-11 23-23 0-13-11-23-23-23z"/>
   <path transform="matrix(.64 0 0 .64 144 144)" d="m292 397c30 0 55 25 55 55s-25 55-55 55-55-25-55-55 25-55 55-55z"/>
   <path transform="matrix(.64 0 0 .64 144 144)" d="m451 394c30 0 55 25 55 55s-25 55-55 55-55-25-55-55 25-55 55-55z"/>
   <path transform="matrix(.64 0 0 .64 144 144)" d="m294 361c-50 0-90 40-90 90 0 45 34 84 79 89l24 2.9-12 20c-3.3 5.6-5.8 12-7.7 18h171c-2-6.1-4.4-12-7.7-18l-12-20 24-2.9h8e-3c45-5.5 79-44 79-89 0-50-40-90-90-90-25 0-49 11-67 30l-12 13-12-13c-17-19-41-30-67-30z"/>
   <path transform="matrix(.64 0 0 .64 144 144)" d="m378 21c33 32 60 75 75 123l10 32 18-28c14-21 27-43 38-66 51 47 85 121 91 197l2.7 34 24-24c4.1-4 7.9-8.3 11-13v-6e-3c7 24 16 55 22 75 43 145-41 244-138 275-13 4.3-28 7.9-43 11-3.1 13-8.1 24-15 35-21 34-59 57-103 57-46 0-86-25-106-63-6.1-11-10-23-13-36-31-8.6-60-21-86-37-55-34-87-82-96-142-10-70 2.1-144 33-205 3.3 13 8.5 25 16 35l18 26 10-30c27-78 72-148 128-199l9.5 86 24-33c25-35 49-72 69-111z"/>
  </g>
  <path transform="matrix(.64 0 0 .64 144 144)" d="m25 6.2v735h702v-735z" fill="#00ffff"/>
 </g>
 <g display="none">
  <path transform="matrix(.64 0 0 .64 144 144)" d="m403 46c-20 39-44 76-69 111l-24 33-9.5-86c-56 51-101 120-128 199l-10 30-18-26c-7.1-10-12-22-16-35-30 61-43 135-33 205 8.8 60 41 108 96 142 26 16 55 28 86 37 2.4 13 6.7 25 13 36 21 37 60 63 106 63 43 0 81-23 103-57 6.6-11 12-22 15-35 15-3.1 30-6.8 43-11 97-31 182-130 138-275-6.1-20-15-51-22-75v6e-3c-3.5 4.6-7.3 9-11 13l-24 24-2.7-34c-6.1-76-41-150-91-197-11 23-24 46-38 66l-18 28-10-32c-15-48-41-91-75-123zm-84 340c25 0 49 11 67 30l12 13 12-13c17-19 41-30 67-30 50 0 90 40 90 90 0 45-34 84-79 89h-8e-3l-24 2.9 12 20c3.3 5.6 5.8 12 7.7 18h-171c2-6.1 4.5-12 7.7-18l12-20-24-2.9c-45-5.5-79-44-79-89 0-50 40-90 90-90zm-12 251h180c-1.6 48-41 87-90 87-49-1e-3 -88-39-90-87z" display="inline" stroke-width="1.6"/>
  <path transform="matrix(.64 0 0 .64 144 144)" d="m312 606a90 90 0 0 0-4.5 28 90 90 0 0 0 0.19 2.9h179a90 90 0 0 0 0.064-2.9 90 90 0 0 0-4.4-28z" display="inline" fill="#000000" stroke-linecap="round" stroke-linejoin="round" stroke-width="4.1"/>
  <path d="m0 0"/>
 </g>
 <g display="none">
  <text x="592" y="534.40002" display="inline" fill="#000000" font-family="'Patrick Hand'" font-size="220.04px" letter-spacing="-11.592px" stroke-width="2.6841" style="line-height:1.25" xml:space="preserve"><tspan x="592" y="534.40002"><tspan fill="#000000" fill-opacity=".5" font-family="'Montserrat Alternates'" font-size="220.04px" stroke-width="2.6841">w</tspan>rec<tspan fill="#000000" fill-opacity=".5" font-family="'Montserrat Alternates'" font-size="220.04px" stroke-width="2.6841">k</tspan>sys</tspan></text>
  <g display="inline">
   <path transform="matrix(.64 0 0 .64 144 144)" d="m372.15 266.33a127.1 227.5 0 0 0-91.227 69.34 200 140.45 0 0 0-105.93 123.88 200 140.45 0 0 0 77.479 110.69 127.1 227.5 0 0 0 119.68 151.1 127.1 227.5 0 0 0 118.85-147.51 200 140.45 0 0 0 84-114.27 200 140.45 0 0 0-112.91-126.42 127.1 227.5 0 0 0-89.936-66.801z" fill="#ffffff" stroke-linecap="round" stroke-linejoin="round" stroke-width="2.5418"/>
  </g>
  <g transform="translate(-.512 -.64384)">
   <g transform="translate(-16,-16)">
    <path d="m401.92 173.44c-16.634 32.68-37.821 62.7-59.52 92.16-2.0267-18.347-4.0533-36.693-6.08-55.04-43.095 38.914-71.874 91.32-88.32 146.56-8.5182-11.911-23.994-36.565-23.528-35.356-22.993 51.677-31.591 114.86-6.7182 167.41 20.359 39.828 62.278 62.833 103.85 74.668 7.6682 50.319 70.646 80.379 114.16 53.28 31.015-10.897 26.972-55.643 61.862-54.847 60.358-15.982 105.68-76.838 98.688-139.63-3.8658-24.767-12.405-74.192-24.742-81.056-6.1223 3.9839-21.042 28.861-19.595 10.971-1.9536-51.53-21.541-103.5-59.301-139.44-9.6574 21.37-23.343 40.434-35.84 60.16-10.323-37.106-25.934-73.303-54.912-99.844zm-53.76 217.6c22.878-7.9384 40.279 27.606 53.991 23.803 23.123-33.549 79.64-30.749 97.815 6.258 21.176 35.466-7.6064 85.129-48.673 85.106-22.754-3.0164 6.7194 18.679 0.58391 25.569h-107.75c2.418-12.001 22.426-28.668-0.78432-25.938-42.041-1.8955-67.897-55.548-42.74-89.485 10.213-15.766 29.706-25.626 47.562-25.312zm101.12 21.12c-29.956-1.4524-47.44 39.913-24.8 60 20.087 22.64 61.452 5.1562 60-24.8 0.29571-18.813-16.376-35.501-35.2-35.2zm-101.76 1.664c-29.956-1.4524-47.44 39.913-24.8 60 20.087 22.64 61.452 5.1562 60-24.8 0.30969-18.818-16.379-35.501-35.2-35.2zm101.76 18.56c37.245 6.095-8.5922 51.998-14.72 14.72-0.16461-7.8696 6.9036-14.814 14.72-14.72zm-101.76 1.664c37.245 6.0958-8.5916 51.998-14.72 14.72-0.16461-7.8696 6.9036-14.814 14.72-14.72zm33.92 51.84c-32.095 20.545 31.383 20.722 0 0zm33.92 0c-32.095 20.545 31.383 20.722 0 0zm-74.24 65.28h115.2c0.57262 43.248-54.302 71.72-89.269 46.162-15.379-10.087-25.296-27.786-25.931-46.162z" fill="url(#linearGradient37295)" stroke-width="1.024"/>
   </g>
  </g>
 </g>
 <g>
  <g stroke-width="2.2222" aria-label="wrecksys">
   <path d="m657.2 336.9v52.466q0 21.497-10.02 32.427-10.02 10.93-29.512 10.93-13.481 0-22.225-5.4652-8.7444-5.6474-12.934-17.489-4.0078 11.841-12.752 17.489-8.7444 5.4652-22.408 5.4652-19.493 0-29.512-10.93-10.02-10.93-10.02-32.427v-52.466h9.1088v51.92q0 18.218 7.4692 26.962 7.4692 8.7444 22.954 8.7444 15.485 0 22.954-8.9266 7.6514-8.9266 7.6514-27.508v-51.191h9.1088v51.191q0 18.764 7.4692 27.691 7.4692 8.7444 23.136 8.7444 15.485 0 22.954-8.7444 7.4692-8.7444 7.4692-26.962v-51.92z" fill-opacity=".5"/>
   <path d="m693.88 357.67q4.3722-10.384 13.663-15.849 9.2909-5.6474 22.59-5.6474v8.9266l-2.1861-0.18217q-15.849 0-24.776 10.02-8.9266 9.8374-8.9266 27.508v49.552h-9.1088v-95.095h8.7444z"/>
   <path d="m783.75 424.53q9.2909 0 17.124-3.2792 8.0157-3.4613 13.299-10.02l5.2831 6.0118q-6.194 7.6514-15.485 11.659-9.2909 3.8257-20.404 3.8257-14.21 0-25.504-6.194-11.113-6.194-17.489-17.124-6.194-10.93-6.194-24.958 0-14.027 5.8296-24.958 6.0118-10.93 16.578-17.124t23.865-6.194q12.388 0 22.225 5.8296 10.02 5.6474 15.849 15.849 6.0118 10.02 6.5583 22.59l-80.339 15.667q3.4613 13.117 13.845 20.768 10.384 7.6514 24.958 7.6514zm-3.097-80.339q-10.748 0-19.311 5.1009-8.5622 4.9187-13.299 14.027-4.7366 8.9266-4.7366 20.404 0 2.0039 0.36435 5.6474l72.506-14.21q-1.2752-8.5622-6.0118-15.667-4.7366-7.1048-12.388-11.113-7.6514-4.19-17.124-4.19z"/>
   <path d="m881.63 432.73q-13.845 0-24.776-6.194t-17.124-17.124q-6.194-11.113-6.194-24.958 0-14.027 6.194-24.958 6.194-11.113 17.124-17.124 10.93-6.194 24.776-6.194 11.477 0 20.768 4.5544 9.4731 4.3722 15.303 12.934l-6.7405 4.9187q-5.1009-7.1048-12.752-10.566-7.4692-3.6435-16.578-3.6435-11.113 0-20.039 5.1009-8.7444 4.9187-13.845 14.027-4.9187 9.1088-4.9187 20.95 0 11.841 4.9187 20.95 5.1009 9.1088 13.845 14.21 8.9266 4.9187 20.039 4.9187 9.1088 0 16.578-3.4613 7.6514-3.6435 12.752-10.748l6.7405 4.9187q-5.8296 8.5622-15.303 13.117-9.2909 4.3722-20.768 4.3722z"/>
   <path d="m969.31 381.17-24.776 22.59v28.237h-9.1088v-135.17h9.1088v95.642l60.846-55.563h11.659l-40.989 38.439 44.997 56.656h-11.295z" fill-opacity=".5"/>
   <path d="m1057 432.73q-11.477 0-21.861-3.4613-10.384-3.4613-16.214-8.7444l4.19-7.287q5.8296 4.9187 14.938 8.1979 9.2909 3.2792 19.31 3.2792 14.392 0 21.132-4.7366 6.9227-4.7366 6.9227-13.117 0-6.0118-3.8257-9.4731-3.6435-3.4613-9.1088-5.1009-5.4652-1.6396-15.12-3.4613-11.295-2.0039-18.218-4.3722-6.9226-2.3683-11.841-7.6514-4.9187-5.2831-4.9187-14.574 0-11.295 9.2909-18.582 9.4731-7.4692 26.78-7.4692 9.1087 0 18.035 2.5504t14.574 6.7405l-4.19 7.287q-5.8296-4.19-13.299-6.3761t-15.303-2.1861q-13.299 0-20.039 4.9187-6.7404 4.9187-6.7404 12.934 0 6.3761 3.8256 10.02 3.8257 3.4613 9.291 5.2831 5.6474 1.6396 15.667 3.6435 11.113 2.0039 17.853 4.3722 6.9226 2.1861 11.659 7.287 4.7365 5.1009 4.7365 14.027 0 11.841-9.8374 18.946-9.8375 7.1048-27.691 7.1048z"/>
   <path d="m1193.7 336.9v84.894q0 23.683-10.566 34.978-10.566 11.295-31.881 11.295-12.206 0-22.954-4.0078-10.748-4.0078-17.307-11.113l4.9187-6.9226q6.3762 6.5583 15.485 10.202 9.1088 3.6435 19.493 3.6435 17.307 0 25.504-9.1088 8.1979-8.9266 8.1979-27.873v-14.574q-4.9187 9.4731-14.21 14.938-9.1088 5.2831-21.314 5.2831-18.582 0-29.148-10.384-10.566-10.384-10.566-29.877v-51.373h9.1088v50.645q0 16.031 8.1979 24.411 8.1978 8.38 23.136 8.38 16.031 0 25.322-10.02 9.4731-10.02 9.4731-26.962v-46.455z"/>
   <path d="m1246.8 432.73q-11.477 0-21.861-3.4613-10.384-3.4613-16.214-8.7444l4.1901-7.287q5.8296 4.9187 14.938 8.1979 9.2909 3.2792 19.311 3.2792 14.392 0 21.132-4.7366 6.9226-4.7366 6.9226-13.117 0-6.0118-3.8257-9.4731-3.6435-3.4613-9.1087-5.1009-5.4653-1.6396-15.12-3.4613-11.295-2.0039-18.218-4.3722-6.9227-2.3683-11.841-7.6514-4.9187-5.2831-4.9187-14.574 0-11.295 9.2909-18.582 9.4731-7.4692 26.78-7.4692 9.1088 0 18.035 2.5504 8.9266 2.5504 14.574 6.7405l-4.19 7.287q-5.8296-4.19-13.299-6.3761-7.4691-2.1861-15.303-2.1861-13.299 0-20.039 4.9187-6.7405 4.9187-6.7405 12.934 0 6.3761 3.8257 10.02 3.8257 3.4613 9.2909 5.2831 5.6474 1.6396 15.667 3.6435 11.113 2.0039 17.853 4.3722 6.9227 2.1861 11.659 7.287 4.7366 5.1009 4.7366 14.027 0 11.841-9.8375 18.946-9.8374 7.1048-27.691 7.1048z"/>
  </g>
  <g transform="matrix(.82792 0 0 .82792 .51305 18.298)">
   <path transform="matrix(.64 0 0 .64 144 144)" d="m372.15 266.33a127.1 227.5 0 0 0-91.227 69.34 200 140.45 0 0 0-105.93 123.88 200 140.45 0 0 0 77.479 110.69 127.1 227.5 0 0 0 119.68 151.1 127.1 227.5 0 0 0 118.85-147.51 200 140.45 0 0 0 84-114.27 200 140.45 0 0 0-112.91-126.42 127.1 227.5 0 0 0-89.936-66.801z" fill="#ffffff" stroke-linecap="round" stroke-linejoin="round" stroke-width="2.5418"/>
  </g>
  <g transform="matrix(.82792 0 0 .82792 .089154 17.765)">
   <g transform="translate(-16,-16)">
    <path d="m401.92 173.44c-16.634 32.68-37.821 62.7-59.52 92.16-2.0267-18.347-4.0533-36.693-6.08-55.04-43.095 38.914-71.874 91.32-88.32 146.56-8.5182-11.911-23.994-36.565-23.528-35.356-22.993 51.677-31.591 114.86-6.7182 167.41 20.359 39.828 62.278 62.833 103.85 74.668 7.6682 50.319 70.646 80.379 114.16 53.28 31.015-10.897 26.972-55.643 61.862-54.847 60.358-15.982 105.68-76.838 98.688-139.63-3.8658-24.767-12.405-74.192-24.742-81.056-6.1223 3.9839-21.042 28.861-19.595 10.971-1.9536-51.53-21.541-103.5-59.301-139.44-9.6574 21.37-23.343 40.434-35.84 60.16-10.323-37.106-25.934-73.303-54.912-99.844zm-53.76 217.6c22.878-7.9384 40.279 27.606 53.991 23.803 23.123-33.549 79.64-30.749 97.815 6.258 21.176 35.466-7.6064 85.129-48.673 85.106-22.754-3.0164 6.7194 18.679 0.58391 25.569h-107.75c2.418-12.001 22.426-28.668-0.78432-25.938-42.041-1.8955-67.897-55.548-42.74-89.485 10.213-15.766 29.706-25.626 47.562-25.312zm101.12 21.12c-29.956-1.4524-47.44 39.913-24.8 60 20.087 22.64 61.452 5.1562 60-24.8 0.29571-18.813-16.376-35.501-35.2-35.2zm-101.76 1.664c-29.956-1.4524-47.44 39.913-24.8 60 20.087 22.64 61.452 5.1562 60-24.8 0.30969-18.818-16.379-35.501-35.2-35.2zm101.76 18.56c37.245 6.095-8.5922 51.998-14.72 14.72-0.16461-7.8696 6.9036-14.814 14.72-14.72zm-101.76 1.664c37.245 6.0958-8.5916 51.998-14.72 14.72-0.16461-7.8696 6.9036-14.814 14.72-14.72zm33.92 51.84c-32.095 20.545 31.383 20.722 0 0zm33.92 0c-32.095 20.545 31.383 20.722 0 0zm-74.24 65.28h115.2c0.57262 43.248-54.302 71.72-89.269 46.162-15.379-10.087-25.296-27.786-25.931-46.162z" fill="url(#linearGradient37295)" stroke-width="1.024"/>
   </g>
  </g>
 </g>
</svg>
